<?xml version="1.0" encoding="UTF-8"?>
<svg id="Capa_1" data-name="Capa 1" xmlns="http://www.w3.org/2000/svg" viewBox="0 0 527.41 376.11">
  <path d="m44.42,376.11c9.1-3.52,18.5-6.27,27.93-8.83,9.43-2.56,18.97-4.72,28.53-6.77,9.56-2.03,19.19-3.73,28.82-5.41,4.82-.78,9.65-1.56,14.49-2.27l7.26-1.03c2.42-.34,4.84-.7,7.27-.98,19.39-2.52,38.86-4.42,58.36-5.75,19.5-1.32,39.03-2.23,58.57-2.61,4.88-.14,9.77-.13,14.65-.19l7.33-.06c2.44-.03,4.88-.05,7.33-.02,9.77.1,19.54.1,29.3.4l14.64.39,14.63.6c9.76.34,19.5,1.02,29.24,1.58,38.96,2.53,77.81,6.48,116.39,12.32-38.96-2.06-77.84-4.11-116.73-5.21l-14.58-.39c-2.43-.06-4.86-.16-7.29-.2l-7.29-.12-14.58-.27-14.58-.12c-19.44-.19-38.87-.05-58.29.33l-14.57.32-14.56.49c-2.43.08-4.85.14-7.28.25l-7.27.33c-4.85.24-9.7.41-14.55.71-4.85.28-9.7.53-14.54.83l-14.53.98-14.52,1.15c-4.84.38-9.67.86-14.51,1.29-19.33,1.84-38.64,4.04-57.84,6.99-2.4.35-4.81.7-7.21,1.1-2.4.39-4.8.76-7.2,1.17l-7.18,1.26-7.17,1.33-7.16,1.41c-2.38.51-4.76.99-7.13,1.53-4.76,1.02-9.49,2.16-14.19,3.46Z" style="fill: #fff; stroke-width: 0px;"/>
  <g>
    <path d="m161.05,193.59v93.27h-27.02v-33.32h-15.82v33.32h-27.02v-93.27h27.02v32.94h15.82v-32.94h27.02Z" style="fill: #fff; stroke-width: 0px;"/>
    <path d="m213.93,191.79c6.69,0,12.97,1.27,18.85,3.79,5.87,2.53,11,5.98,15.37,10.36,4.37,4.37,7.83,9.5,10.36,15.37,2.53,5.88,3.8,12.16,3.8,18.85s-1.27,12.97-3.8,18.85c-2.53,5.88-5.98,11-10.36,15.37-4.37,4.37-9.5,7.83-15.37,10.36-5.88,2.53-12.16,3.8-18.85,3.8s-12.97-1.27-18.85-3.8c-5.88-2.53-11-5.98-15.37-10.36-4.37-4.37-7.83-9.5-10.36-15.37-2.53-5.87-3.8-12.16-3.8-18.85s1.26-12.97,3.8-18.85c2.53-5.87,5.98-11,10.36-15.37,4.37-4.37,9.5-7.83,15.37-10.36,5.87-2.53,12.16-3.79,18.85-3.79Zm20.71,48.24c0-2.83-.54-5.49-1.61-7.98-1.07-2.49-2.51-4.63-4.31-6.43s-3.95-3.24-6.43-4.31c-2.49-1.07-5.15-1.61-7.98-1.61s-5.49.54-7.98,1.61c-2.49,1.07-4.65,2.51-6.5,4.31-1.85,1.8-3.3,3.95-4.37,6.43-1.07,2.49-1.61,5.15-1.61,7.98s.53,5.49,1.61,7.98c1.07,2.49,2.53,4.65,4.37,6.5,1.84,1.85,4.01,3.3,6.5,4.37,2.49,1.07,5.15,1.61,7.98,1.61s5.49-.53,7.98-1.61c2.49-1.07,4.63-2.53,6.43-4.37,1.8-1.84,3.24-4.01,4.31-6.5,1.07-2.49,1.61-5.15,1.61-7.98Z" style="fill: #fff; stroke-width: 0px;"/>
    <path d="m354.41,231.15v56.09l-25.34-.13v-2.7c-4.03,1.54-8.19,2.55-12.48,3.02-4.29.47-8.56.36-12.8-.32-4.25-.69-8.36-1.95-12.35-3.8-3.99-1.84-7.7-4.31-11.13-7.4-4.89-4.29-8.66-9.28-11.32-14.99-2.66-5.7-4.18-11.58-4.57-17.62-.39-6.05.41-12.05,2.38-18.01,1.97-5.96,5.1-11.39,9.39-16.27,4.12-4.63,9.15-8.28,15.12-10.94,5.96-2.66,12.22-4.29,18.78-4.89,6.56-.6,13.04-.13,19.43,1.42,6.39,1.54,12.03,4.2,16.92,7.98l-17.63,19.81c-3.09-1.89-6.3-3.07-9.65-3.54-3.34-.47-6.52-.43-9.52.13-3,.56-5.72,1.5-8.17,2.83-2.44,1.33-4.27,2.9-5.47,4.7-1.63,2.32-2.85,4.8-3.67,7.46-.82,2.66-1.18,5.32-1.09,7.98.08,2.66.66,5.21,1.74,7.65,1.07,2.44,2.72,4.61,4.95,6.5,2.14,1.97,4.52,3.39,7.14,4.25,2.62.86,5.27,1.18,7.98.96,2.7-.21,5.32-.9,7.85-2.06,2.53-1.16,4.78-2.85,6.75-5.08l.51-.64h-11.96l4.76-22.51,33.45.13Z" style="fill: #fff; stroke-width: 0px;"/>
    <path d="m418.48,193.59l28.82,93.27h-27.02l-2.96-11.06h-28.17l-2.83,11.06h-27.02l28.82-93.27h30.36Zm-9.91,56.09l-5.27-21.48-5.4,21.48h10.68Z" style="fill: #fff; stroke-width: 0px;"/>
    <path d="m527.06,286.86h-29.08c-3.86-5.66-7.06-10.18-9.58-13.57-2.53-3.39-4.59-5.94-6.18-7.65-1.59-1.71-2.77-2.74-3.54-3.09-.77-.34-1.31-.3-1.61.13-.3.43-.45,1.07-.45,1.93v22.26h-27.02v-93.27h35.38c4.12,0,8.17.99,12.16,2.96,3.99,1.97,7.44,4.46,10.36,7.46,3.43,3.43,5.98,7.33,7.65,11.71,1.67,4.37,2.46,8.84,2.38,13.38-.09,4.55-1.05,9.03-2.9,13.44-1.85,4.42-4.48,8.38-7.91,11.9l20.33,32.42Zm-35.64-58.92c0-2.49-.86-4.59-2.57-6.3-1.72-1.71-3.82-2.57-6.3-2.57h-6.18v17.88h6.18c2.49,0,4.59-.88,6.3-2.64,1.71-1.76,2.57-3.88,2.57-6.37Z" style="fill: #fff; stroke-width: 0px;"/>
  </g>
  <g>
    <path d="m165.4,107.36v77.28h-22.39v-39.97l-14.18,18.87-13.96-18.87v39.97h-22.39v-77.28h22.39l13.96,18.76,14.18-18.76h22.39Z" style="fill: #fff; stroke-width: 0px;"/>
    <path d="m175.2,107.36h33.47v19.93h-5.54v37.42h5.54v19.93h-33.47v-19.93h5.54v-37.42h-5.54v-19.93Z" style="fill: #fff; stroke-width: 0px;"/>
  </g>
  <path d="m303.62,150.6c-1.31-1.3-128.53-128.52-150.61-150.6C131.1,21.92,8.05,144.97,2.41,150.6c-1.56,1.56-2.41,3.65-2.41,5.87s.86,4.32,2.41,5.88l4.52,4.52c1.56,1.56,3.65,2.42,5.88,2.42s4.32-.86,5.88-2.42l20.98-20.99v143.37c7.22-2.59,16.15-5.69,24.8-8.43V121.08l1.33-1.33c5.88-5.87,80.47-80.46,84-84l3.2-3.2,3.2,3.19c1.74,1.73,28.22,28.21,51.58,51.56,16.51,16.51,30.96,30.96,32.45,32.45l1.33,1.33v61.74c8.95,3.34,19.69,10.51,24.8,22.22v-59.16l20.98,20.99c1.56,1.56,3.65,2.42,5.88,2.42s4.32-.86,5.87-2.42l4.53-4.52c3.23-3.23,3.23-8.5,0-11.75Z" style="fill: #fff; stroke-width: 0px;"/>
  <g>
    <path d="m90.59,298.61h18.73v7.05h-10.31v7.28h9.02v7.05h-9.02v8.15h10.72v7.05h-19.15v-36.6Z" style="fill: #fff; stroke-width: 0px;"/>
    <path d="m115.55,298.61h8.43v29.54h9.16v7.05h-17.59v-36.6Z" style="fill: #fff; stroke-width: 0px;"/>
    <path d="m137.95,298.61h18.73v7.05h-10.31v7.28h9.02v7.05h-9.02v8.15h10.72v7.05h-19.15v-36.6Z" style="fill: #fff; stroke-width: 0px;"/>
    <path d="m162.91,308.59c0-3.45.99-6.08,2.98-7.88,1.98-1.8,4.61-2.7,7.88-2.7s5.89.9,7.88,2.7c1.98,1.8,2.98,4.43,2.98,7.88v3.39h-8.43v-4.12c0-.46-.02-.85-.05-1.19-.03-.34-.12-.67-.27-1.01-.15-.34-.4-.61-.73-.82-.34-.21-.79-.32-1.37-.32s-1.04.11-1.37.32c-.34.21-.58.49-.73.82-.15.34-.24.67-.27,1.01-.03.34-.05.73-.05,1.19v18.09c0,.37.02.72.05,1.05.03.34.12.69.27,1.05.15.37.4.66.73.89.34.23.79.34,1.37.34s1.04-.11,1.37-.34c.34-.23.58-.53.73-.89.15-.37.24-.72.27-1.05.03-.34.05-.69.05-1.05v-5.36h8.43v4.63c0,3.27-.98,5.85-2.93,7.74-1.95,1.89-4.6,2.84-7.92,2.84s-5.97-.95-7.92-2.84c-1.95-1.89-2.93-4.47-2.93-7.74v-16.63Z" style="fill: #fff; stroke-width: 0px;"/>
    <path d="m189.06,298.61h19.33v7.05h-5.45v29.54h-8.43v-29.54h-5.45v-7.05Z" style="fill: #fff; stroke-width: 0px;"/>
    <path d="m212.83,298.61h11.13c3.82,0,6.55.66,8.2,1.99,1.65,1.33,2.47,3.61,2.47,6.85,0,2.41-.33,4.27-.98,5.56-.66,1.3-2.02,2.27-4.1,2.91v.09c1.53.31,2.73.97,3.6,1.99.87,1.02,1.31,2.3,1.31,3.82v6.46c0,2.02.05,3.56.16,4.63.11,1.07.34,1.83.71,2.29h-8.34c-.43-.52-.69-1.36-.8-2.52-.11-1.16-.16-2.63-.16-4.4v-5.86c0-1.07-.24-1.84-.73-2.31-.49-.47-1.31-.71-2.47-.71h-1.56v15.8h-8.43v-36.6Zm8.43,14.57h2.06c1.28,0,2.08-.34,2.4-1.03.32-.69.48-1.78.48-3.28s-.18-2.58-.53-3.16c-.35-.58-1.28-.87-2.77-.87h-1.65v8.34Z" style="fill: #fff; stroke-width: 0px;"/>
    <path d="m240.36,308.59c0-3.45.99-6.08,2.98-7.88,1.98-1.8,4.61-2.7,7.88-2.7s5.89.9,7.88,2.7c1.98,1.8,2.98,4.43,2.98,7.88v16.63c0,3.27-.98,5.85-2.93,7.74-1.95,1.89-4.6,2.84-7.92,2.84s-5.97-.95-7.92-2.84c-1.95-1.89-2.93-4.47-2.93-7.74v-16.63Zm8.43,17.36c0,.37.02.72.05,1.05.03.34.12.69.27,1.05.15.37.4.66.73.89.34.23.79.34,1.37.34s1.04-.11,1.37-.34.58-.53.73-.89c.15-.37.24-.72.27-1.05.03-.34.05-.69.05-1.05v-18.09c0-.46-.02-.85-.05-1.19-.03-.34-.12-.67-.27-1.01-.15-.34-.4-.61-.73-.82-.34-.21-.79-.32-1.37-.32s-1.04.11-1.37.32c-.34.21-.58.49-.73.82-.15.34-.24.67-.27,1.01-.03.34-.05.73-.05,1.19v18.09Z" style="fill: #fff; stroke-width: 0px;"/>
    <path d="m267.89,298.61h12.55c1.74,0,3.21.24,4.4.71,1.19.47,2.14,1.15,2.84,2.02.7.87,1.2,1.89,1.49,3.07.29,1.18.43,2.51.43,4.01v17.4c0,1.62-.26,3.02-.78,4.21-.52,1.19-1.21,2.17-2.08,2.93-.87.76-1.85,1.33-2.93,1.69-1.08.37-2.21.55-3.37.55h-12.55v-36.6Zm8.43,30.37h1.33c2.35,0,3.53-1.04,3.53-3.11v-17.91c0-2.08-1.18-3.11-3.53-3.11h-1.33v24.14Z" style="fill: #fff; stroke-width: 0px;"/>
    <path d="m295.42,308.59c0-3.45.99-6.08,2.98-7.88,1.98-1.8,4.61-2.7,7.88-2.7s5.89.9,7.88,2.7c1.98,1.8,2.98,4.43,2.98,7.88v16.63c0,3.27-.98,5.85-2.93,7.74-1.95,1.89-4.6,2.84-7.92,2.84s-5.97-.95-7.92-2.84c-1.95-1.89-2.93-4.47-2.93-7.74v-16.63Zm8.43,17.36c0,.37.02.72.05,1.05.03.34.12.69.27,1.05.15.37.4.66.73.89.34.23.79.34,1.37.34s1.04-.11,1.37-.34.58-.53.73-.89c.15-.37.24-.72.27-1.05.03-.34.05-.69.05-1.05v-18.09c0-.46-.02-.85-.05-1.19-.03-.34-.12-.67-.27-1.01-.15-.34-.4-.61-.73-.82-.34-.21-.79-.32-1.37-.32s-1.04.11-1.37.32c-.34.21-.58.49-.73.82-.15.34-.24.67-.27,1.01-.03.34-.05.73-.05,1.19v18.09Z" style="fill: #fff; stroke-width: 0px;"/>
    <path d="m323.17,298.61h13.28l2.38,18.14h.09l2.38-18.14h13.28v36.6h-8.15v-28.44h-.09l-4.72,28.44h-5.5l-4.72-28.44h-.09v28.44h-8.15v-36.6Z" style="fill: #fff; stroke-width: 0px;"/>
    <path d="m360.64,298.61h18.73v7.05h-10.31v7.28h9.02v7.05h-9.02v8.15h10.72v7.05h-19.15v-36.6Zm8.7-8.43h7.1l-4.86,6.23h-4.4l2.15-6.23Z" style="fill: #fff; stroke-width: 0px;"/>
    <path d="m393.44,322.79v2.7c0,1.16.2,2.08.6,2.77.4.69,1.15,1.03,2.24,1.03.92,0,1.63-.27,2.15-.8.52-.53.78-1.21.78-2.04,0-1.34-.49-2.53-1.47-3.55-.98-1.02-2.47-2.25-4.49-3.69-.15-.12-.4-.31-.73-.55-.49-.4-.86-.7-1.1-.92-.98-.76-1.77-1.42-2.38-1.97-.61-.55-1.17-1.18-1.67-1.88-.5-.7-.9-1.52-1.19-2.45-.29-.93-.43-1.99-.43-3.18,0-3.51.92-6.1,2.77-7.76,1.85-1.66,4.51-2.5,7.99-2.5s6.22.81,7.95,2.43,2.59,3.88,2.59,6.78v3.3h-7.88v-1.97c0-1.19-.18-2.16-.53-2.91-.35-.75-1.06-1.12-2.13-1.12-.89,0-1.59.24-2.11.73-.52.49-.78,1.16-.78,2.02,0,.92.53,1.89,1.6,2.91,1.07,1.02,2.67,2.33,4.81,3.92l.6.46c.34.27.82.69,1.47,1.24.95.73,1.7,1.37,2.27,1.92.56.55,1.1,1.22,1.6,2.02.5.79.91,1.74,1.21,2.84.3,1.1.46,2.4.46,3.89,0,.98-.2,2-.6,3.07-.4,1.07-1.04,2.08-1.92,3.05-.89.96-2.08,1.74-3.57,2.34-1.5.6-3.28.89-5.36.89s-3.68-.27-5.08-.82c-1.4-.55-2.53-1.28-3.39-2.2-.86-.92-1.47-1.89-1.85-2.93-.38-1.04-.57-2.08-.57-3.11v-3.94h8.15Z" style="fill: #fff; stroke-width: 0px;"/>
    <path d="m411.76,298.61h19.33v7.05h-5.45v29.54h-8.43v-29.54h-5.45v-7.05Z" style="fill: #fff; stroke-width: 0px;"/>
    <path d="m435.8,298.61h8.43v36.6h-8.43v-36.6Z" style="fill: #fff; stroke-width: 0px;"/>
    <path d="m450.32,308.59c0-3.45.99-6.08,2.98-7.88,1.98-1.8,4.61-2.7,7.88-2.7s5.89.9,7.88,2.7c1.98,1.8,2.98,4.43,2.98,7.88v3.39h-8.43v-4.12c0-.46-.02-.85-.05-1.19-.03-.34-.12-.67-.27-1.01-.15-.34-.4-.61-.73-.82-.34-.21-.79-.32-1.37-.32s-1.04.11-1.37.32c-.34.21-.58.49-.73.82-.15.34-.24.67-.27,1.01-.03.34-.05.73-.05,1.19v18.09c0,.37.02.72.05,1.05.03.34.12.69.27,1.05.15.37.4.66.73.89.34.23.79.34,1.37.34s1.04-.11,1.37-.34.58-.53.73-.89c.15-.37.24-.72.27-1.05.03-.34.05-.69.05-1.05v-5.36h8.43v4.63c0,3.27-.98,5.85-2.93,7.74-1.95,1.89-4.6,2.84-7.92,2.84s-5.97-.95-7.92-2.84c-1.95-1.89-2.93-4.47-2.93-7.74v-16.63Z" style="fill: #fff; stroke-width: 0px;"/>
    <path d="m477.85,308.59c0-3.45.99-6.08,2.98-7.88,1.98-1.8,4.61-2.7,7.88-2.7s5.89.9,7.88,2.7,2.98,4.43,2.98,7.88v16.63c0,3.27-.98,5.85-2.93,7.74-1.95,1.89-4.6,2.84-7.92,2.84s-5.97-.95-7.92-2.84c-1.95-1.89-2.93-4.47-2.93-7.74v-16.63Zm8.43,17.36c0,.37.01.72.05,1.05.03.34.12.69.28,1.05.15.37.4.66.73.89.34.23.79.34,1.37.34s1.04-.11,1.37-.34c.34-.23.58-.53.73-.89.15-.37.24-.72.28-1.05.03-.34.05-.69.05-1.05v-18.09c0-.46-.02-.85-.05-1.19-.03-.34-.12-.67-.28-1.01-.15-.34-.4-.61-.73-.82-.34-.21-.79-.32-1.37-.32s-1.04.11-1.37.32c-.34.21-.58.49-.73.82-.15.34-.25.67-.28,1.01-.03.34-.05.73-.05,1.19v18.09Z" style="fill: #fff; stroke-width: 0px;"/>
    <path d="m513.21,322.79v2.7c0,1.16.2,2.08.6,2.77.4.69,1.15,1.03,2.24,1.03.92,0,1.63-.27,2.15-.8.52-.53.78-1.21.78-2.04,0-1.34-.49-2.53-1.47-3.55-.98-1.02-2.47-2.25-4.49-3.69-.15-.12-.4-.31-.73-.55-.49-.4-.86-.7-1.1-.92-.98-.76-1.77-1.42-2.38-1.97-.61-.55-1.17-1.18-1.67-1.88-.5-.7-.9-1.52-1.19-2.45-.29-.93-.43-1.99-.43-3.18,0-3.51.92-6.1,2.77-7.76,1.85-1.66,4.51-2.5,7.99-2.5s6.22.81,7.95,2.43,2.59,3.88,2.59,6.78v3.3h-7.88v-1.97c0-1.19-.18-2.16-.53-2.91-.35-.75-1.06-1.12-2.13-1.12-.89,0-1.59.24-2.11.73-.52.49-.78,1.16-.78,2.02,0,.92.53,1.89,1.6,2.91,1.07,1.02,2.67,2.33,4.81,3.92l.6.46c.34.27.82.69,1.47,1.24.95.73,1.7,1.37,2.27,1.92.56.55,1.1,1.22,1.6,2.02.5.79.91,1.74,1.21,2.84.3,1.1.46,2.4.46,3.89,0,.98-.2,2-.6,3.07-.4,1.07-1.04,2.08-1.92,3.05-.89.96-2.08,1.74-3.57,2.34-1.5.6-3.28.89-5.36.89s-3.68-.27-5.08-.82c-1.4-.55-2.53-1.28-3.39-2.2-.86-.92-1.47-1.89-1.85-2.93-.38-1.04-.57-2.08-.57-3.11v-3.94h8.15Z" style="fill: #fff; stroke-width: 0px;"/>
  </g>
</svg>